<svg version="1.1" id="Layer_1" xmlns="http://www.w3.org/2000/svg" xmlns:xlink="http://www.w3.org/1999/xlink" x="0px" y="0px"
	 width="100%" viewBox="0 0 87 87" enable-background="new 0 0 87 87" xml:space="preserve">
<path fill="#1F1D15" opacity="1.000000" stroke="none" 
	d="
M88.000000,33.000000 
	C88.000000,40.354252 88.000000,47.708500 87.693489,55.683372 
	C86.955261,56.796532 86.324821,57.218430 86.120934,57.791962 
	C81.206657,71.615677 71.773102,80.898903 58.072563,85.995506 
	C57.247345,86.302483 56.684780,87.315514 56.000000,88.000000 
	C55.555553,88.000000 55.111111,88.000000 54.267574,87.651787 
	C52.373531,85.789009 50.456940,82.763367 49.462048,83.040970 
	C46.379383,83.901123 41.439274,82.485115 41.000000,88.000000 
	C39.285641,88.000000 37.571285,88.000000 35.241867,87.783241 
	C34.058567,87.058517 33.490330,86.550552 33.102882,85.910950 
	C30.639843,80.128258 21.112225,75.068344 14.682594,75.858826 
	C13.268057,74.472160 12.111941,73.264587 11.201437,71.862305 
	C13.292743,70.118576 15.138437,68.569565 17.255211,67.206238 
	C19.350782,68.596046 21.175274,69.800186 23.028683,71.345276 
	C23.703342,72.790436 24.349083,73.894638 25.275543,75.150757 
	C26.370892,75.535515 27.185522,75.768364 28.074001,76.159515 
	C28.456425,76.475815 28.764999,76.633804 29.073574,76.791801 
	C29.045910,76.524979 29.018244,76.258163 28.989435,75.661911 
	C28.989222,74.893227 28.990150,74.453979 28.992996,73.612640 
	C28.995016,72.138985 28.995117,71.067421 28.997608,69.997620 
	C29.000000,69.999390 28.999647,69.999695 29.373360,69.999107 
	C30.494499,69.997528 31.241922,69.996536 32.008911,70.371422 
	C32.685902,72.831352 33.343334,74.915390 34.117531,77.304138 
	C35.581326,78.905510 36.928352,80.202171 39.320625,82.505005 
	C39.130417,79.838356 39.065273,78.925072 39.047600,77.694809 
	C39.393997,76.585335 39.692921,75.792847 40.287064,75.120178 
	C41.392445,75.492325 42.202614,75.744637 43.385895,75.996971 
	C44.505955,75.997894 45.252899,75.998795 46.142670,76.195793 
	C47.860126,75.595627 49.434761,74.799362 51.211372,73.802032 
	C51.950329,73.060188 52.487312,72.519417 53.296417,72.166992 
	C54.777390,74.027344 55.986233,75.699356 57.551735,77.864685 
	C59.020527,73.246025 58.297226,70.225754 55.149429,67.778885 
	C55.535774,67.028503 55.770649,66.516548 56.059097,65.723656 
	C56.112675,62.094135 56.112675,58.745556 56.112675,55.248692 
	C54.441307,55.156544 52.681797,55.059536 50.958439,54.627548 
	C51.666702,53.461006 52.338818,52.629444 53.434254,51.873402 
	C56.020733,52.547855 59.380894,52.502918 60.116207,53.869904 
	C62.095997,57.550419 64.292282,58.418114 68.036026,56.960670 
	C72.809250,59.119453 76.900345,56.429848 76.764374,51.627678 
	C76.718193,49.996799 76.317474,48.243481 76.767403,46.754150 
	C78.633453,40.577290 78.295380,39.805309 72.017441,37.653427 
	C72.162331,36.877831 72.240242,36.433712 72.587700,35.820824 
	C75.606834,32.089062 78.356430,28.526075 81.446274,25.035767 
	C83.857674,27.738964 85.928833,30.369482 88.000000,33.000000 
M78.075554,57.885166 
	C78.075554,57.885166 77.906204,58.108540 77.906204,58.108540 
	C77.906204,58.108540 78.148506,57.971325 78.075554,57.885166 
z"/>
<path fill="#1F1D14" opacity="1.000000" stroke="none" 
	d="
M81.106026,24.963085 
	C78.356430,28.526075 75.606834,32.089062 72.312363,35.712971 
	C70.581558,37.519157 69.395638,39.264427 68.060562,41.348831 
	C67.825752,44.395847 67.740089,47.103733 67.355667,49.862793 
	C66.656624,49.972286 66.256317,50.030602 65.559349,49.871399 
	C63.580956,44.928596 62.087429,40.122562 60.113800,35.522514 
	C59.437702,33.946709 57.422760,31.722120 56.261242,31.858149 
	C54.417225,32.074108 52.497486,33.778225 51.138039,35.318920 
	C50.058365,36.542542 49.769390,38.463844 48.851318,39.855106 
	C46.788704,39.083775 45.004128,38.532722 43.042465,37.673302 
	C40.631874,33.213749 37.795006,30.397482 32.451618,32.739742 
	C32.275700,32.741863 32.017365,32.980751 31.701466,32.894638 
	C30.593288,32.545425 29.801006,32.282322 29.135448,31.723373 
	C29.836252,30.274595 30.410330,29.121658 31.072651,27.591259 
	C31.123899,23.818430 31.086906,20.423065 31.298903,16.879559 
	C32.048218,16.151756 32.548542,15.572098 33.279305,14.996386 
	C33.509739,15.000334 33.970615,15.007609 34.342964,14.947056 
	C37.817455,13.789647 40.988220,12.848404 43.990250,11.524530 
	C45.316643,10.939598 46.300915,9.578865 47.440498,8.570326 
	C46.303589,7.475307 45.166679,6.380290 43.925385,5.184732 
	C42.625710,7.323228 41.813160,8.660202 40.793476,9.724718 
	C38.046616,7.278686 35.506893,5.105111 32.986561,2.609794 
	C33.003971,1.858701 33.001984,1.429350 33.000000,1.000000 
	C34.066669,1.000000 35.133339,1.000000 36.797092,1.215359 
	C38.596119,1.287145 39.798058,1.143573 41.000000,1.000000 
	C43.370556,1.000000 45.741116,1.000000 48.596966,1.264093 
	C49.050980,1.703604 49.019699,1.879021 48.830727,2.205159 
	C48.863335,2.804145 49.053631,3.252410 49.500946,3.701737 
	C50.097687,3.657459 50.437401,3.612119 51.148499,3.694071 
	C52.037094,3.887621 52.554306,3.953880 53.344810,4.114687 
	C54.362873,4.395473 55.107639,4.581712 55.842346,5.130879 
	C53.111965,9.943590 54.562286,13.014091 58.919701,15.293148 
	C59.890682,15.801002 60.697575,16.786951 61.348297,17.715219 
	C64.747459,22.564146 66.954010,22.861732 72.369621,19.077423 
	C74.813370,19.729904 76.896576,20.335453 79.249847,21.101280 
	C80.310844,21.498184 81.101768,21.734808 81.852890,22.279978 
	C81.577400,23.380045 81.341713,24.171564 81.106026,24.963085 
M52.588509,18.650635 
	C50.223042,18.650635 47.857574,18.650635 45.492107,18.650635 
	C45.536892,19.050463 45.581673,19.450289 45.626457,19.850117 
	C49.696983,20.820936 53.767509,21.791754 57.838039,22.762571 
	C57.987396,22.543427 58.136757,22.324280 58.286114,22.105133 
	C56.616642,21.054686 54.947170,20.004236 52.588509,18.650635 
z"/>
<path fill="#211D15" opacity="1.000000" stroke="none" 
	d="
M1.000001,55.000000 
	C1.000000,47.979053 1.000000,40.958103 1.305461,33.319839 
	C2.888777,30.242643 4.144630,27.771023 5.449220,25.325397 
	C7.912489,20.707678 9.783257,15.562421 15.977042,13.842672 
	C19.278980,14.256071 22.122377,14.626373 25.053690,15.330889 
	C25.430464,16.777910 25.719320,17.890717 25.759228,18.910126 
	C24.836653,18.763632 24.163027,18.710533 23.489399,18.657434 
	C23.455759,18.918692 23.422117,19.179951 23.388475,19.441208 
	C24.263435,19.627687 25.138395,19.814167 25.993137,20.367886 
	C25.004841,28.795185 20.543200,23.798710 17.246904,22.676739 
	C19.297325,27.057735 21.193081,31.108271 22.924717,35.479492 
	C22.131723,37.863728 21.502853,39.927269 20.647190,41.844524 
	C19.600555,40.646942 18.780714,39.595650 17.626472,38.115555 
	C16.415548,40.174690 15.503601,41.697887 14.621270,43.238049 
	C14.213246,43.950279 13.762180,44.661659 13.502954,45.431454 
	C11.845665,50.352917 13.814793,53.282082 18.730906,54.040554 
	C19.944210,54.227749 20.912241,56.004707 21.609694,57.133343 
	C18.469513,57.858364 15.712663,58.500889 12.523520,59.142258 
	C10.072442,59.094849 8.053656,59.048599 5.824692,58.736412 
	C4.076344,57.313648 2.538172,56.156822 1.000001,55.000000 
z"/>
<path fill="#000000" opacity="1.000000" stroke="none" 
	d="
M55.852409,4.767950 
	C55.107639,4.581712 54.362873,4.395473 53.277042,3.776055 
	C52.848370,3.130052 52.760754,2.917229 52.515572,2.361800 
	C52.571999,1.679463 52.785999,1.339732 53.000000,1.000000 
	C64.589943,1.000000 76.179886,1.000000 88.000000,1.000000 
	C88.000000,11.353092 88.000000,21.707888 88.000000,32.531342 
	C85.928833,30.369482 83.857674,27.738964 81.446274,25.035767 
	C81.341713,24.171564 81.577400,23.380045 81.721832,22.038904 
	C81.095894,20.990330 80.561211,20.491375 79.944504,19.670998 
	C78.282684,17.885450 76.702896,16.421324 75.013611,14.630444 
	C70.617378,11.178849 66.330650,8.054008 62.024849,4.950996 
	C62.005783,4.972826 62.049023,5.011433 61.918392,4.835050 
	C61.600132,4.430099 61.374886,4.248109 60.794571,4.038977 
	C58.935551,4.232822 57.393982,4.500386 55.852409,4.767950 
z"/>
<path fill="#000000" opacity="1.000000" stroke="none" 
	d="
M1.000001,55.468658 
	C2.538172,56.156822 4.076344,57.313648 5.796527,58.994671 
	C5.938668,59.687374 5.898798,59.855885 5.712745,60.327019 
	C6.686738,63.424496 7.806913,66.219345 9.016841,69.313110 
	C9.723004,70.427017 10.339416,71.242012 10.955826,72.057014 
	C12.111941,73.264587 13.268057,74.472160 14.877913,76.132523 
	C20.119652,81.738113 26.064943,84.738380 32.922096,86.042587 
	C33.490330,86.550552 34.058567,87.058517 34.813400,87.783241 
	C23.741198,88.000000 12.482393,88.000000 1.000000,88.000000 
	C1.000000,77.313477 1.000000,66.625397 1.000001,55.468658 
z"/>
<path fill="#000000" opacity="1.000000" stroke="none" 
	d="
M15.518500,13.799574 
	C9.783257,15.562421 7.912489,20.707678 5.449220,25.325397 
	C4.144630,27.771023 2.888777,30.242643 1.305461,32.851265 
	C1.000000,22.406796 1.000000,11.813590 1.000000,1.000000 
	C11.353187,1.000000 21.707935,1.000000 32.531342,1.000000 
	C33.001984,1.429350 33.003971,1.858701 32.621529,2.702077 
	C28.158085,5.077445 24.079069,7.038785 19.697086,9.080156 
	C18.538719,9.740270 17.683315,10.320351 16.643345,11.160513 
	C16.145353,12.213588 15.831926,13.006581 15.518500,13.799574 
z"/>
<path fill="#000000" opacity="1.000000" stroke="none" 
	d="
M56.468658,88.000000 
	C56.684780,87.315514 57.247345,86.302483 58.072563,85.995506 
	C71.773102,80.898903 81.206657,71.615677 86.120934,57.791962 
	C86.324821,57.218430 86.955261,56.796532 87.693489,56.151993 
	C88.000000,66.593208 88.000000,77.186409 88.000000,88.000000 
	C77.646812,88.000000 67.292068,88.000000 56.468658,88.000000 
z"/>
<path fill="#39160C" opacity="1.000000" stroke="none" 
	d="
M41.463184,88.000000 
	C41.439274,82.485115 46.379383,83.901123 49.462048,83.040970 
	C50.456940,82.763367 52.373531,85.789009 53.934242,87.651787 
	C49.975456,88.000000 45.950912,88.000000 41.463184,88.000000 
z"/>
<path fill="#BC5A19" opacity="1.000000" stroke="none" 
	d="
M52.599903,1.000000 
	C52.785999,1.339732 52.571999,1.679463 52.255489,2.408739 
	C51.694359,3.054450 51.235741,3.310615 50.777119,3.566780 
	C50.437401,3.612119 50.097687,3.657459 49.482391,3.423835 
	C49.134010,2.781394 49.061214,2.417916 48.988419,2.054439 
	C49.019699,1.879021 49.050980,1.703604 49.041130,1.264093 
	C50.066601,1.000000 51.133205,1.000000 52.599903,1.000000 
z"/>
<path fill="#201D14" opacity="1.000000" stroke="none" 
	d="
M40.600006,1.000000 
	C39.798058,1.143573 38.596119,1.287145 37.197090,1.215359 
	C38.066669,1.000000 39.133339,1.000000 40.600006,1.000000 
z"/>
<path fill="#F93F01" opacity="1.000000" stroke="none" 
	d="
M49.129356,40.075386 
	C49.769390,38.463844 50.058365,36.542542 51.138039,35.318920 
	C52.497486,33.778225 54.417225,32.074108 56.261242,31.858149 
	C57.422760,31.722120 59.437702,33.946709 60.113800,35.522514 
	C62.087429,40.122562 63.580956,44.928596 65.612373,50.195374 
	C66.293350,51.528336 66.624634,52.319805 66.993240,53.372772 
	C67.266548,54.103443 67.502548,54.572617 67.755226,55.316193 
	C67.800423,55.955318 67.828926,56.320045 67.857430,56.684772 
	C64.292282,58.418114 62.095997,57.550419 60.116207,53.869904 
	C59.380894,52.502918 56.020733,52.547855 53.361671,51.544865 
	C51.206520,49.082417 49.547272,47.024025 47.945763,44.602760 
	C48.378792,42.851723 48.754074,41.463554 49.129356,40.075386 
M55.694458,46.863049 
	C56.118671,46.821716 56.542885,46.780388 57.428913,46.763512 
	C57.766354,46.594360 57.869759,46.332695 57.746891,45.137383 
	C57.308971,44.014576 56.871052,42.891769 56.018757,40.706516 
	C55.149323,42.820007 54.704132,43.902210 54.069450,45.578022 
	C54.398628,45.982124 54.727806,46.386227 55.694458,46.863049 
M55.616169,40.944626 
	C55.711601,40.863014 55.807037,40.781403 55.902473,40.699791 
	C55.820515,40.605057 55.743553,40.441311 55.655201,40.434914 
	C55.566002,40.428448 55.465500,40.578033 55.616169,40.944626 
z"/>
<path fill="#1C1B13" opacity="1.000000" stroke="none" 
	d="
M31.989347,69.995544 
	C31.241922,69.996536 30.494499,69.997528 29.263550,69.678459 
	C26.859615,66.922943 24.939203,64.487495 23.311457,62.025146 
	C25.731754,61.783199 26.671728,61.023628 25.121075,58.794430 
	C25.849331,57.712410 26.413704,56.882984 27.303192,56.069756 
	C28.419865,56.385078 29.211422,56.684216 29.998413,57.233147 
	C29.993847,57.482944 30.034376,57.980980 30.106035,58.321297 
	C31.901276,62.465614 34.664303,64.826904 39.292374,65.158836 
	C41.058784,65.194130 42.526878,65.084244 44.336361,64.975952 
	C45.133331,64.966949 45.588913,64.956352 46.440727,64.947044 
	C47.893902,64.964577 48.950840,64.980820 49.848442,65.174217 
	C49.473770,65.584999 49.253685,65.814064 48.676811,66.103165 
	C46.558746,68.112137 44.792721,70.056511 43.021606,72.400429 
	C43.015270,73.865639 43.014023,74.931290 43.012779,75.996948 
	C42.202614,75.744637 41.392445,75.492325 40.151993,74.861649 
	C39.151333,73.973869 38.580959,73.464455 37.964520,72.654129 
	C36.952942,71.559067 35.987431,70.764915 34.642963,69.972870 
	C33.505787,69.981834 32.747566,69.988686 31.989347,69.995544 
z"/>
<path fill="#1F1D14" opacity="1.000000" stroke="none" 
	d="
M68.036026,56.960670 
	C67.828926,56.320045 67.800423,55.955318 67.971390,55.059181 
	C68.665817,53.352493 69.160759,52.177208 69.780060,51.030876 
	C69.904427,51.059830 70.159790,51.056789 70.431885,50.976845 
	C73.280441,49.250931 71.977257,48.544804 69.916199,47.571259 
	C69.771255,45.102684 69.712654,43.064209 69.824997,40.754753 
	C70.647446,39.650822 71.298958,38.817863 71.950462,37.984905 
	C78.295380,39.805309 78.633453,40.577290 76.767403,46.754150 
	C76.317474,48.243481 76.718193,49.996799 76.764374,51.627678 
	C76.900345,56.429848 72.809250,59.119453 68.036026,56.960670 
z"/>
<path fill="#27241B" opacity="1.000000" stroke="none" 
	d="
M23.018793,62.052040 
	C24.939203,64.487495 26.859615,66.922943 28.889837,69.679047 
	C28.999647,69.999695 29.000000,69.999390 28.792820,70.182098 
	C28.720787,71.581451 28.855934,72.798088 28.991081,74.014732 
	C28.990150,74.453979 28.989222,74.893227 28.741875,75.664566 
	C28.495459,75.996658 28.000153,76.001221 28.000153,76.001221 
	C27.185522,75.768364 26.370892,75.535515 25.247149,74.809441 
	C24.291946,73.212257 23.645855,72.108284 22.999763,71.004318 
	C21.175274,69.800186 19.350782,68.596046 16.937901,67.076447 
	C15.217852,64.820702 14.086193,62.880421 13.001757,60.713104 
	C13.048981,60.486069 13.145466,60.032852 13.538416,60.054035 
	C16.960508,60.734158 19.989651,61.393097 23.018793,62.052040 
z"/>
<path fill="#201E16" opacity="1.000000" stroke="none" 
	d="
M33.102882,85.910950 
	C26.064943,84.738380 20.119652,81.738113 15.136333,76.311615 
	C21.112225,75.068344 30.639843,80.128258 33.102882,85.910950 
z"/>
<path fill="#EE3D05" opacity="1.000000" stroke="none" 
	d="
M47.888016,44.965630 
	C49.547272,47.024025 51.206520,49.082417 52.938354,51.469349 
	C52.338818,52.629444 51.666702,53.461006 50.745514,54.637611 
	C50.496445,54.982655 50.073036,55.031311 49.784508,55.026039 
	C49.303776,55.025848 49.111568,55.030937 48.652180,55.123745 
	C47.918751,55.784542 47.452511,56.357620 46.712826,56.901329 
	C45.973057,56.606201 45.506729,56.340443 44.994270,55.896408 
	C44.864902,55.485977 44.767235,55.260052 44.684521,54.852219 
	C44.476482,54.376144 44.239056,54.088203 44.004974,53.484238 
	C44.015305,52.746876 44.022297,52.325542 44.366356,51.807350 
	C45.406906,49.804081 46.110394,47.897659 46.931122,45.760078 
	C47.328247,45.341152 47.608131,45.153389 47.888016,44.965630 
z"/>
<path fill="#29251C" opacity="1.000000" stroke="none" 
	d="
M43.026699,72.000877 
	C44.792721,70.056511 46.558746,68.112137 48.919861,66.271210 
	C50.345764,66.918259 51.176586,67.461861 52.007217,68.338074 
	C52.006088,69.114166 52.005146,69.557648 51.767902,70.170555 
	C51.357533,71.561020 51.183464,72.782059 51.009399,74.003098 
	C49.434761,74.799362 47.860126,75.595627 46.107857,75.845505 
	C44.962383,74.199707 43.994541,73.100288 43.026699,72.000877 
z"/>
<path fill="#29251C" opacity="1.000000" stroke="none" 
	d="
M50.073036,55.031311 
	C50.073036,55.031311 50.496445,54.982655 50.709366,54.972595 
	C52.681797,55.059536 54.441307,55.156544 56.112675,55.248692 
	C56.112675,58.745556 56.112675,62.094135 55.749466,65.623688 
	C54.239197,65.195366 53.092133,64.586067 51.881271,63.627895 
	C50.890793,60.811665 49.964111,58.344303 49.278992,55.841766 
	C49.825787,55.634480 50.009953,55.376053 50.073036,55.031311 
z"/>
<path fill="#2B1B10" opacity="1.000000" stroke="none" 
	d="
M12.954534,60.940144 
	C14.086193,62.880421 15.217852,64.820702 16.666821,66.890762 
	C15.138437,68.569565 13.292743,70.118576 11.201437,71.862305 
	C10.339416,71.242012 9.723004,70.427017 9.305964,69.204483 
	C13.693008,65.956154 8.705312,63.742367 9.380573,61.131115 
	C10.836239,61.042404 11.895387,60.991276 12.954534,60.940144 
z"/>
<path fill="#301F12" opacity="1.000000" stroke="none" 
	d="
M52.004204,70.001129 
	C52.005146,69.557648 52.006088,69.114166 52.380886,68.338028 
	C53.502483,68.009354 54.250221,68.013336 54.997963,68.017319 
	C58.297226,70.225754 59.020527,73.246025 57.551735,77.864685 
	C55.986233,75.699356 54.777390,74.027344 53.195435,71.906982 
	C52.549614,70.972794 52.276909,70.486961 52.004204,70.001129 
z"/>
<path fill="#2F291F" opacity="1.000000" stroke="none" 
	d="
M38.010586,72.955040 
	C38.580959,73.464455 39.151333,73.973869 39.856773,74.741821 
	C39.692921,75.792847 39.393997,76.585335 38.691959,77.614609 
	C36.859486,77.567398 35.430122,77.283417 34.000763,76.999435 
	C33.343334,74.915390 32.685902,72.831352 32.008911,70.371429 
	C32.747566,69.988686 33.505787,69.981834 34.721493,70.294891 
	C36.122849,71.394882 37.066719,72.174965 38.010586,72.955040 
z"/>
<path fill="#201E16" opacity="1.000000" stroke="none" 
	d="
M34.117531,77.304138 
	C35.430122,77.283417 36.859486,77.567398 38.644485,77.931587 
	C39.065273,78.925072 39.130417,79.838356 39.320625,82.505005 
	C36.928352,80.202171 35.581326,78.905510 34.117531,77.304138 
z"/>
<path fill="#29251B" opacity="1.000000" stroke="none" 
	d="
M55.149429,67.778885 
	C54.250221,68.013336 53.502483,68.009354 52.381073,68.005417 
	C51.176586,67.461861 50.345764,66.918259 49.271896,66.206604 
	C49.253685,65.814064 49.473770,65.584999 50.092491,65.049568 
	C50.978947,64.490768 51.462009,64.233772 51.945072,63.976768 
	C53.092133,64.586067 54.239197,65.195366 55.695892,65.904633 
	C55.770649,66.516548 55.535774,67.028503 55.149429,67.778885 
z"/>
<path fill="#93290F" opacity="1.000000" stroke="none" 
	d="
M72.017441,37.653427 
	C71.298958,38.817863 70.647446,39.650822 69.584305,40.756432 
	C68.851616,41.026546 68.530624,41.020088 68.209709,41.009697 
	C69.395638,39.264427 70.581558,37.519157 72.042824,35.881744 
	C72.240242,36.433712 72.162331,36.877831 72.017441,37.653427 
z"/>
<path fill="#29251B" opacity="1.000000" stroke="none" 
	d="
M43.021606,72.400429 
	C43.994541,73.100288 44.962383,74.199707 45.965034,75.649406 
	C45.252899,75.998795 44.505955,75.997894 43.385895,75.996971 
	C43.014023,74.931290 43.015270,73.865639 43.021606,72.400429 
z"/>
<path fill="#29251B" opacity="1.000000" stroke="none" 
	d="
M51.767902,70.170555 
	C52.276909,70.486961 52.549614,70.972794 52.923306,71.718643 
	C52.487312,72.519417 51.950329,73.060188 51.211372,73.802032 
	C51.183464,72.782059 51.357533,71.561020 51.767902,70.170555 
z"/>
<path fill="#201E16" opacity="1.000000" stroke="none" 
	d="
M23.028683,71.345276 
	C23.645855,72.108284 24.291946,73.212257 24.966431,74.657532 
	C24.349083,73.894638 23.703342,72.790436 23.028683,71.345276 
z"/>
<path fill="#201E16" opacity="1.000000" stroke="none" 
	d="
M28.992996,73.612640 
	C28.855934,72.798088 28.720787,71.581451 28.790430,70.180328 
	C28.995117,71.067421 28.995016,72.138985 28.992996,73.612640 
z"/>
<path fill="#1F1D14" opacity="1.000000" stroke="none" 
	d="
M78.112030,57.928246 
	C78.148506,57.971325 77.906204,58.108540 77.906204,58.108540 
	C77.906204,58.108540 78.075554,57.885166 78.112030,57.928246 
z"/>
<path fill="#201E16" opacity="1.000000" stroke="none" 
	d="
M28.074001,76.159515 
	C28.000153,76.001221 28.495459,75.996658 28.743019,75.994003 
	C29.018244,76.258163 29.045910,76.524979 29.073574,76.791801 
	C28.764999,76.633804 28.456425,76.475815 28.074001,76.159515 
z"/>
<path fill="#201D14" opacity="1.000000" stroke="none" 
	d="
M20.000051,9.000126 
	C24.079069,7.038785 28.158085,5.077445 32.602135,3.023820 
	C35.506893,5.105111 38.046616,7.278686 40.493561,9.891921 
	C38.257393,11.890257 36.114006,13.448934 33.970615,15.007609 
	C33.970615,15.007609 33.509739,15.000334 33.012981,15.085558 
	C32.020771,15.421751 31.525316,15.672720 30.777878,16.008207 
	C29.681038,16.068396 28.836182,16.044064 27.858036,15.786136 
	C26.805090,15.367251 25.885431,15.181963 24.965775,14.996675 
	C22.122377,14.626373 19.278980,14.256071 15.977041,13.842672 
	C15.831926,13.006581 16.145353,12.213588 16.931248,11.228453 
	C18.269159,10.357583 19.134605,9.678854 20.000051,9.000126 
z"/>
<path fill="#242217" opacity="1.000000" stroke="none" 
	d="
M55.842346,5.130879 
	C57.393982,4.500386 58.935551,4.232822 60.945793,4.191907 
	C61.623230,4.619130 61.834751,4.816755 62.049023,5.011433 
	C62.049023,5.011433 62.005783,4.972826 61.955414,5.236330 
	C60.714443,6.454474 59.523838,7.409113 57.800064,8.791249 
	C60.888268,10.778864 63.190182,12.260411 65.792862,13.935539 
	C64.783905,15.937521 64.053627,18.199066 68.297722,17.106892 
	C69.724632,17.846685 70.866859,18.438587 72.009087,19.030491 
	C66.954010,22.861732 64.747459,22.564146 61.348297,17.715219 
	C60.697575,16.786951 59.890682,15.801002 58.919701,15.293148 
	C54.562286,13.014091 53.111965,9.943590 55.842346,5.130879 
z"/>
<path fill="#F43F03" opacity="1.000000" stroke="none" 
	d="
M20.873985,41.990814 
	C21.502853,39.927269 22.131723,37.863728 23.208832,35.351799 
	C24.440556,34.271214 25.224045,33.639015 26.347088,32.978554 
	C27.460670,32.639931 28.234697,32.329575 29.008726,32.019218 
	C29.801006,32.282322 30.593288,32.545425 31.707359,33.257393 
	C31.981361,34.429768 31.933571,35.153275 31.633465,36.006866 
	C30.892933,36.702652 30.404716,37.268356 29.596958,37.888786 
	C28.577694,38.640217 27.877972,39.336922 27.026989,40.354492 
	C26.482782,41.772491 26.089836,42.869621 25.648399,43.951813 
	C25.599907,43.936867 25.502199,43.964287 25.084385,43.892723 
	C24.105108,43.768417 23.543648,43.715672 22.763210,43.559418 
	C22.087162,43.296974 21.630091,43.138035 21.101032,42.731186 
	C20.977360,42.319122 20.925671,42.154968 20.873985,41.990814 
z"/>
<path fill="#F63F03" opacity="1.000000" stroke="none" 
	d="
M32.627537,32.737621 
	C37.795006,30.397482 40.631874,33.213749 42.951534,38.018806 
	C42.023758,39.514988 41.009830,40.357300 39.688988,41.050629 
	C37.332127,39.137535 35.282185,37.373417 33.284950,35.233765 
	C33.100952,34.151360 32.864246,33.444492 32.627537,32.737621 
z"/>
<path fill="#2A261B" opacity="1.000000" stroke="none" 
	d="
M39.995903,41.199612 
	C41.009830,40.357300 42.023758,39.514988 43.128616,38.327171 
	C45.004128,38.532722 46.788704,39.083775 48.851318,39.855106 
	C48.754074,41.463554 48.378792,42.851723 47.945763,44.602760 
	C47.608131,45.153389 47.328247,45.341152 46.583778,45.671539 
	C44.078094,44.275982 42.036999,42.737797 39.995903,41.199612 
z"/>
<path fill="#2E1B10" opacity="1.000000" stroke="none" 
	d="
M34.342964,14.947056 
	C36.114006,13.448934 38.257393,11.890257 40.700699,10.164378 
	C41.813160,8.660202 42.625710,7.323228 43.925385,5.184732 
	C45.166679,6.380290 46.303589,7.475307 47.440498,8.570326 
	C46.300915,9.578865 45.316643,10.939598 43.990250,11.524530 
	C40.988220,12.848404 37.817455,13.789647 34.342964,14.947056 
z"/>
<path fill="#302E21" opacity="1.000000" stroke="none" 
	d="
M72.369621,19.077423 
	C70.866859,18.438587 69.724632,17.846685 68.429886,16.800236 
	C70.559288,15.882857 72.841194,15.420028 75.123108,14.957197 
	C76.702896,16.421324 78.282684,17.885450 79.764618,19.823410 
	C79.431961,20.505630 79.202965,20.720217 78.979790,20.941002 
	C76.896576,20.335453 74.813370,19.729904 72.369621,19.077423 
z"/>
<path fill="#3A1D10" opacity="1.000000" stroke="none" 
	d="
M52.933102,18.802212 
	C54.947170,20.004236 56.616642,21.054686 58.286114,22.105133 
	C58.136757,22.324280 57.987396,22.543427 57.838039,22.762571 
	C53.767509,21.791754 49.696983,20.820936 45.626457,19.850117 
	C45.581673,19.450289 45.536892,19.050463 45.492107,18.650635 
	C47.857574,18.650635 50.223042,18.650635 52.933102,18.802212 
z"/>
<path fill="#271C13" opacity="1.000000" stroke="none" 
	d="
M29.135448,31.723373 
	C28.234697,32.329575 27.460670,32.639931 26.160971,32.745346 
	C23.529858,28.715851 26.090017,27.284172 29.117611,26.273149 
	C29.832352,27.006380 30.408381,27.487551 30.984407,27.968721 
	C30.410330,29.121658 29.836252,30.274595 29.135448,31.723373 
z"/>
<path fill="#421A0C" opacity="1.000000" stroke="none" 
	d="
M31.072651,27.591259 
	C30.408381,27.487551 29.832352,27.006380 29.197353,25.927628 
	C28.756029,22.226606 28.373678,19.123169 27.991325,16.019732 
	C28.836182,16.044064 29.681038,16.068396 30.780001,16.284634 
	C31.039377,16.660261 31.044645,16.843981 31.049913,17.027700 
	C31.086906,20.423065 31.123899,23.818430 31.072651,27.591259 
z"/>
<path fill="#9C2A13" opacity="1.000000" stroke="none" 
	d="
M68.060562,41.348831 
	C68.530624,41.020088 68.851616,41.026546 69.413376,41.027405 
	C69.712654,43.064209 69.771255,45.102684 69.863503,47.953438 
	C69.984695,49.529404 70.072243,50.293098 70.159790,51.056789 
	C70.159790,51.056789 69.904427,51.059830 69.508598,51.043110 
	C68.750717,51.033558 68.388664,51.040726 67.939178,50.737137 
	C67.785980,50.221455 67.720207,50.016537 67.654419,49.811615 
	C67.740089,47.103733 67.825752,44.395847 68.060562,41.348831 
z"/>
<path fill="#541E0E" opacity="1.000000" stroke="none" 
	d="
M67.355675,49.862793 
	C67.720207,50.016537 67.785980,50.221455 67.830383,51.006538 
	C67.524651,52.094891 67.240288,52.603085 66.955917,53.111279 
	C66.624634,52.319805 66.293350,51.528336 65.909042,50.412888 
	C66.256317,50.030602 66.656624,49.972286 67.355675,49.862793 
z"/>
<path fill="#242217" opacity="1.000000" stroke="none" 
	d="
M79.249847,21.101280 
	C79.202965,20.720217 79.431961,20.505630 79.846649,20.144833 
	C80.561211,20.491375 81.095894,20.990330 81.761642,21.730358 
	C81.101768,21.734808 80.310844,21.498184 79.249847,21.101280 
z"/>
<path fill="#2E1B10" opacity="1.000000" stroke="none" 
	d="
M31.298903,16.879559 
	C31.044645,16.843981 31.039377,16.660261 31.031986,16.200115 
	C31.525316,15.672720 32.020771,15.421751 32.782547,15.081610 
	C32.548542,15.572098 32.048218,16.151756 31.298903,16.879559 
z"/>
<path fill="#852E0C" opacity="1.000000" stroke="none" 
	d="
M32.451618,32.739742 
	C32.864246,33.444492 33.100952,34.151360 32.951591,35.317085 
	C32.338943,35.809551 32.112358,35.843166 31.885780,35.876781 
	C31.933571,35.153275 31.981361,34.429768 32.023258,33.343506 
	C32.017365,32.980751 32.275700,32.741863 32.451618,32.739742 
z"/>
<path fill="#7E2B0E" opacity="1.000000" stroke="none" 
	d="
M48.830727,2.205159 
	C49.061214,2.417916 49.134010,2.781394 49.225365,3.422774 
	C49.053631,3.252410 48.863335,2.804145 48.830727,2.205159 
z"/>
<path fill="#7E2B0E" opacity="1.000000" stroke="none" 
	d="
M51.148499,3.694071 
	C51.235741,3.310615 51.694359,3.054450 52.413063,2.751346 
	C52.760754,2.917229 52.848370,3.130052 53.003750,3.681507 
	C52.554306,3.953880 52.037094,3.887621 51.148499,3.694071 
z"/>
<path fill="#28231A" opacity="1.000000" stroke="none" 
	d="
M20.647190,41.844524 
	C20.925671,42.154968 20.977360,42.319122 21.030020,43.122864 
	C21.121727,44.815357 21.212463,45.868259 21.344830,47.246941 
	C21.646042,48.400776 21.905628,49.228828 22.174820,50.390850 
	C23.379393,52.039284 24.574356,53.353752 25.960289,54.814629 
	C26.426865,55.325211 26.702471,55.689388 26.978077,56.053562 
	C26.413704,56.882984 25.849331,57.712410 24.818424,58.720604 
	C23.565599,58.283199 22.779312,57.667027 21.993025,57.050850 
	C20.912241,56.004707 19.944210,54.227749 18.730906,54.040554 
	C13.814793,53.282082 11.845665,50.352917 13.502954,45.431454 
	C13.762180,44.661659 14.213246,43.950279 14.621270,43.238049 
	C15.503601,41.697887 16.415548,40.174690 17.626472,38.115555 
	C18.780714,39.595650 19.600555,40.646942 20.647190,41.844524 
M17.296026,50.735069 
	C17.191601,50.529526 17.087173,50.323978 16.982746,50.118435 
	C16.876904,50.194504 16.771063,50.270576 16.665220,50.346645 
	C16.810892,50.523624 16.956564,50.700607 17.296026,50.735069 
z"/>
<path fill="#341910" opacity="1.000000" stroke="none" 
	d="
M27.858036,15.786136 
	C28.373678,19.123169 28.756029,22.226606 29.058641,25.675566 
	C26.090017,27.284172 23.529858,28.715851 25.821415,32.773609 
	C25.224045,33.639015 24.440556,34.271214 23.372953,35.031113 
	C21.193081,31.108271 19.297325,27.057735 17.246904,22.676739 
	C20.543200,23.798710 25.004841,28.795185 25.992641,20.118593 
	C26.012362,19.502064 26.008177,19.003523 26.008177,19.003523 
	C25.719320,17.890717 25.430464,16.777910 25.053690,15.330889 
	C25.885431,15.181963 26.805090,15.367251 27.858036,15.786136 
z"/>
<path fill="#381C10" opacity="1.000000" stroke="none" 
	d="
M21.609694,57.133343 
	C22.779312,57.667027 23.565599,58.283199 24.654541,58.973198 
	C26.671728,61.023628 25.731754,61.783199 23.311457,62.025146 
	C19.989651,61.393097 16.960508,60.734158 13.473873,59.835236 
	C13.016380,59.595257 12.955812,59.143417 12.955812,59.143417 
	C15.712663,58.500889 18.469513,57.858364 21.609694,57.133343 
z"/>
<path fill="#91250F" opacity="1.000000" stroke="none" 
	d="
M12.523520,59.142258 
	C12.955812,59.143417 13.016380,59.595257 13.080923,59.814056 
	C13.145466,60.032852 13.048981,60.486069 13.001757,60.713104 
	C11.895387,60.991276 10.836239,61.042404 9.043915,61.067772 
	C7.493467,60.702805 6.676198,60.363598 5.858927,60.024391 
	C5.898798,59.855885 5.938668,59.687374 6.006704,59.260609 
	C8.053656,59.048599 10.072442,59.094849 12.523520,59.142258 
z"/>
<path fill="#201D14" opacity="1.000000" stroke="none" 
	d="
M25.759228,18.910126 
	C26.008177,19.003523 26.012362,19.502064 26.012859,19.751354 
	C25.138395,19.814167 24.263435,19.627687 23.388475,19.441208 
	C23.422117,19.179951 23.455759,18.918692 23.489399,18.657434 
	C24.163027,18.710533 24.836653,18.763632 25.759228,18.910126 
z"/>
<path fill="#30281B" opacity="1.000000" stroke="none" 
	d="
M75.013611,14.630445 
	C72.841194,15.420028 70.559288,15.882857 68.145203,16.652346 
	C64.053627,18.199066 64.783905,15.937521 65.792862,13.935539 
	C63.190182,12.260411 60.888268,10.778864 57.800064,8.791249 
	C59.523838,7.409113 60.714443,6.454474 61.974480,5.214500 
	C66.330650,8.054008 70.617378,11.178849 75.013611,14.630445 
z"/>
<path fill="#30281B" opacity="1.000000" stroke="none" 
	d="
M61.918392,4.835050 
	C61.834751,4.816755 61.623230,4.619130 61.263241,4.265626 
	C61.374886,4.248109 61.600132,4.430099 61.918392,4.835050 
z"/>
<path fill="#1D1C13" opacity="1.000000" stroke="none" 
	d="
M5.712745,60.327019 
	C6.676198,60.363598 7.493467,60.702805 8.647395,61.105354 
	C8.705312,63.742367 13.693008,65.956154 9.216211,68.905571 
	C7.806913,66.219345 6.686738,63.424496 5.712745,60.327019 
z"/>
<path fill="#211D15" opacity="1.000000" stroke="none" 
	d="
M19.697086,9.080156 
	C19.134605,9.678854 18.269159,10.357583 17.115812,10.968372 
	C17.683315,10.320351 18.538719,9.740270 19.697086,9.080156 
z"/>
<path fill="#1D1D16" opacity="1.000000" stroke="none" 
	d="
M54.258938,44.984413 
	C54.704132,43.902210 55.149323,42.820007 56.018757,40.706516 
	C56.871052,42.891769 57.308971,44.014576 57.584671,45.652039 
	C57.224419,46.320690 57.072632,46.511478 56.967098,46.739059 
	C56.542885,46.780388 56.118671,46.821716 55.307129,46.588226 
	C54.699512,45.870407 54.479225,45.427410 54.258938,44.984413 
z"/>
<path fill="#C33D0D" opacity="1.000000" stroke="none" 
	d="
M66.993240,53.372772 
	C67.240288,52.603085 67.524651,52.094891 67.917816,51.317295 
	C68.388664,51.040726 68.750717,51.033558 69.384232,51.014160 
	C69.160759,52.177208 68.665817,53.352493 67.954712,54.784782 
	C67.502548,54.572617 67.266548,54.103443 66.993240,53.372772 
z"/>
<path fill="#492412" opacity="1.000000" stroke="none" 
	d="
M54.164192,45.281219 
	C54.479225,45.427410 54.699512,45.870407 54.988396,46.551868 
	C54.727806,46.386227 54.398628,45.982124 54.164192,45.281219 
z"/>
<path fill="#492412" opacity="1.000000" stroke="none" 
	d="
M57.198006,46.751286 
	C57.072632,46.511478 57.224419,46.320690 57.580788,46.072605 
	C57.869759,46.332695 57.766354,46.594360 57.198006,46.751286 
z"/>
<path fill="#432111" opacity="1.000000" stroke="none" 
	d="
M55.493057,40.801941 
	C55.465500,40.578033 55.566002,40.428448 55.655201,40.434914 
	C55.743553,40.441311 55.820515,40.605057 55.902473,40.699791 
	C55.807037,40.781403 55.711601,40.863014 55.493057,40.801941 
z"/>
<path fill="#29251C" opacity="1.000000" stroke="none" 
	d="
M45.040401,56.074684 
	C45.506729,56.340443 45.973057,56.606201 46.694771,57.273605 
	C46.634624,59.116566 46.319084,60.557877 45.741928,62.168362 
	C44.985199,63.216476 44.490086,64.095421 43.994972,64.974358 
	C42.526878,65.084244 41.058784,65.194130 39.293964,64.745598 
	C38.999752,62.811867 39.002270,61.436558 39.163055,59.875889 
	C39.537834,59.449554 39.762829,59.216774 40.294128,59.054367 
	C42.074772,58.102592 43.557587,57.088638 45.040401,56.074684 
z"/>
<path fill="#29251B" opacity="1.000000" stroke="none" 
	d="
M39.004784,60.061245 
	C39.002270,61.436558 38.999752,62.811867 38.995644,64.600418 
	C34.664303,64.826904 31.901276,62.465614 30.425667,58.278343 
	C31.711248,57.623020 32.748859,57.350971 34.186981,57.087341 
	C35.385487,57.038521 36.183483,56.981293 37.047951,57.243187 
	C37.744537,58.395294 38.374660,59.228268 39.004784,60.061245 
z"/>
<path fill="#36291E" opacity="1.000000" stroke="none" 
	d="
M46.003544,61.999191 
	C46.319084,60.557877 46.634624,59.116566 46.968216,57.302971 
	C47.452511,56.357620 47.918751,55.784542 48.685173,55.333439 
	C48.985355,55.455410 49.037434,55.876942 49.037434,55.876942 
	C49.964111,58.344303 50.890793,60.811665 51.881271,63.627899 
	C51.462009,64.233772 50.978947,64.490768 50.251827,64.872421 
	C48.950840,64.980820 47.893902,64.964577 46.433479,64.579887 
	C46.021179,63.474026 46.012360,62.736607 46.003544,61.999191 
z"/>
<path fill="#DB3B09" opacity="1.000000" stroke="none" 
	d="
M27.303192,56.069756 
	C26.702471,55.689388 26.426865,55.325211 26.106037,54.423588 
	C26.393206,52.549534 26.725594,51.212925 27.336214,50.029888 
	C28.737341,51.125256 29.860237,52.067047 31.092106,53.354080 
	C30.801714,54.793991 30.402346,55.888672 30.002979,56.983349 
	C29.211422,56.684216 28.419865,56.385078 27.303192,56.069756 
z"/>
<path fill="#502312" opacity="1.000000" stroke="none" 
	d="
M29.998413,57.233147 
	C30.402346,55.888672 30.801714,54.793991 31.480318,53.337914 
	C32.536186,52.999992 33.312817,53.023468 34.042076,53.449036 
	C33.925293,54.927059 33.855885,56.002991 33.786476,57.078926 
	C32.748859,57.350971 31.711248,57.623020 30.354008,57.938026 
	C30.034376,57.980980 29.993847,57.482944 29.998413,57.233147 
z"/>
<path fill="#201E16" opacity="1.000000" stroke="none" 
	d="
M37.964520,72.654129 
	C37.066719,72.174965 36.122849,71.394882 35.100449,70.292786 
	C35.987431,70.764915 36.952942,71.559067 37.964520,72.654129 
z"/>
<path fill="#29251B" opacity="1.000000" stroke="none" 
	d="
M45.741928,62.168362 
	C46.012360,62.736607 46.021179,63.474026 46.037243,64.578598 
	C45.588913,64.956352 45.133331,64.966949 44.336365,64.975952 
	C44.490086,64.095421 44.985199,63.216476 45.741928,62.168362 
z"/>
<path fill="#1F1D15" opacity="1.000000" stroke="none" 
	d="
M70.431885,50.976845 
	C70.072243,50.293098 69.984695,49.529404 69.949844,48.383533 
	C71.977257,48.544804 73.280441,49.250931 70.431885,50.976845 
z"/>
<path fill="#282017" opacity="1.000000" stroke="none" 
	d="
M31.633465,36.006866 
	C32.112358,35.843166 32.338943,35.809551 32.898884,35.692619 
	C35.282185,37.373417 37.332127,39.137535 39.688988,41.050629 
	C42.036999,42.737797 44.078094,44.275982 46.466534,45.902702 
	C46.110394,47.897659 45.406906,49.804081 44.240269,51.502762 
	C42.530487,50.142159 41.283863,48.989285 39.869728,47.556381 
	C36.440308,44.128922 33.178406,40.981491 29.916500,37.834061 
	C30.404716,37.268356 30.892933,36.702652 31.633465,36.006866 
z"/>
<path fill="#F13D04" opacity="1.000000" stroke="none" 
	d="
M40.037239,47.836411 
	C41.283863,48.989285 42.530487,50.142159 43.903202,51.599617 
	C44.022297,52.325542 44.015305,52.746876 43.741753,53.565868 
	C43.309246,54.042339 43.143299,54.121159 42.665916,54.225845 
	C41.584358,54.919067 40.814236,55.586411 39.722298,56.213856 
	C38.594154,56.423992 37.787819,56.674030 36.981483,56.924065 
	C36.183483,56.981293 35.385487,57.038521 34.186981,57.087341 
	C33.855885,56.002991 33.925293,54.927059 34.298073,53.304703 
	C34.748535,52.198196 34.895622,51.638111 35.371223,50.999271 
	C37.145569,49.892479 38.591404,48.864445 40.037239,47.836411 
z"/>
<path fill="#2B1C13" opacity="1.000000" stroke="none" 
	d="
M40.044109,56.253754 
	C40.814236,55.586411 41.584358,54.919067 42.927700,54.400398 
	C43.885658,54.712837 44.270397,54.876598 44.655136,55.040359 
	C44.767235,55.260052 44.864902,55.485977 44.994270,55.896412 
	C43.557587,57.088638 42.074772,58.102592 40.299923,58.712227 
	C40.019962,57.623192 40.032036,56.938473 40.044109,56.253754 
z"/>
<path fill="#5C1D10" opacity="1.000000" stroke="none" 
	d="
M44.684521,54.852219 
	C44.270397,54.876598 43.885658,54.712837 43.239136,54.374527 
	C43.143299,54.121159 43.309246,54.042339 43.738411,53.881897 
	C44.239056,54.088203 44.476482,54.376144 44.684521,54.852219 
z"/>
<path fill="#DE3B0B" opacity="1.000000" stroke="none" 
	d="
M49.278992,55.841766 
	C49.037434,55.876942 48.985355,55.455410 48.952362,55.245716 
	C49.111568,55.030937 49.303776,55.025848 49.784508,55.026039 
	C50.009953,55.376053 49.825787,55.634480 49.278992,55.841766 
z"/>
<path fill="#201C13" opacity="1.000000" stroke="none" 
	d="
M35.042709,51.078026 
	C34.895622,51.638111 34.748535,52.198196 34.345444,52.902615 
	C33.312817,53.023468 32.536186,52.999992 31.371346,52.992676 
	C29.860237,52.067047 28.737341,51.125256 27.300398,49.727802 
	C26.760382,48.502125 26.534412,47.732109 26.265265,46.581062 
	C26.047022,45.455608 25.871956,44.711182 25.696892,43.966755 
	C26.089836,42.869621 26.482782,41.772491 27.339031,40.463593 
	C30.215792,43.860561 32.629250,47.469292 35.042709,51.078026 
z"/>
<path fill="#3E1C11" opacity="1.000000" stroke="none" 
	d="
M35.371223,50.999271 
	C32.629250,47.469292 30.215792,43.860561 27.490292,40.142727 
	C27.877972,39.336922 28.577694,38.640217 29.596958,37.888786 
	C33.178406,40.981491 36.440308,44.128922 39.869728,47.556381 
	C38.591404,48.864445 37.145569,49.892479 35.371223,50.999271 
z"/>
<path fill="#E23C08" opacity="1.000000" stroke="none" 
	d="
M25.648399,43.951813 
	C25.871956,44.711182 26.047022,45.455608 25.894417,46.603149 
	C25.319391,47.018074 25.072035,47.029884 24.475534,47.036560 
	C23.185328,46.994671 22.244263,46.957916 21.303200,46.921162 
	C21.212463,45.868259 21.121727,44.815357 21.102005,43.370777 
	C21.630091,43.138035 22.087162,43.296974 22.834051,43.802788 
	C23.916645,44.087872 24.709421,44.026077 25.502199,43.964287 
	C25.502199,43.964287 25.599907,43.936867 25.648399,43.951813 
z"/>
<path fill="#B9350C" opacity="1.000000" stroke="none" 
	d="
M25.084385,43.892723 
	C24.709421,44.026077 23.916645,44.087872 23.053026,43.906296 
	C23.543648,43.715672 24.105108,43.768417 25.084385,43.892723 
z"/>
<path fill="#EF3E06" opacity="1.000000" stroke="none" 
	d="
M24.824678,47.041695 
	C25.072035,47.029884 25.319391,47.018074 25.937595,46.984177 
	C26.534412,47.732109 26.760382,48.502125 27.022167,49.574230 
	C26.725594,51.212925 26.393206,52.549534 25.915068,54.277184 
	C24.574356,53.353752 23.379393,52.039284 22.481861,50.296509 
	C23.461090,48.926029 24.142885,47.983864 24.824678,47.041695 
z"/>
<path fill="#C0390E" opacity="1.000000" stroke="none" 
	d="
M24.475534,47.036560 
	C24.142885,47.983864 23.461090,48.926029 22.472256,49.962540 
	C21.905628,49.228828 21.646042,48.400776 21.344830,47.246941 
	C22.244263,46.957916 23.185328,46.994671 24.475534,47.036560 
z"/>
<path fill="#211D15" opacity="1.000000" stroke="none" 
	d="
M17.199131,50.806328 
	C16.956564,50.700607 16.810892,50.523624 16.665220,50.346645 
	C16.771063,50.270576 16.876904,50.194504 16.982746,50.118435 
	C17.087173,50.323978 17.191601,50.529526 17.199131,50.806328 
z"/>
<path fill="#3B190F" opacity="1.000000" stroke="none" 
	d="
M39.722298,56.213856 
	C40.032036,56.938473 40.019962,57.623192 40.002098,58.650051 
	C39.762829,59.216774 39.537834,59.449554 39.163052,59.875889 
	C38.374660,59.228268 37.744537,58.395294 37.047951,57.243191 
	C37.787819,56.674030 38.594154,56.423992 39.722298,56.213856 
z"/>
</svg>